solid OpenSCAD_Model
  facet normal 0 1 -0
    outer loop
      vertex -5 11 0
      vertex -7 11 20
      vertex -5 11 20
    endloop
  endfacet
  facet normal 0 1 0
    outer loop
      vertex -7 11 20
      vertex -5 11 0
      vertex -7 11 0
    endloop
  endfacet
  facet normal 0 0 1
    outer loop
      vertex 11.5 14 20
      vertex 6 12 20
      vertex 11 12 20
    endloop
  endfacet
  facet normal 0 0 1
    outer loop
      vertex 0 6 20
      vertex 6 12 20
      vertex 1.5 14 20
    endloop
  endfacet
  facet normal -0 0 1
    outer loop
      vertex 1.5 14 20
      vertex 6 12 20
      vertex 11.5 14 20
    endloop
  endfacet
  facet normal 0 0 1
    outer loop
      vertex 11.5 14 20
      vertex 13 23 20
      vertex 11.5 22 20
    endloop
  endfacet
  facet normal 0 0 1
    outer loop
      vertex 13 23 20
      vertex 1.5 22 20
      vertex 11.5 22 20
    endloop
  endfacet
  facet normal 0 0 1
    outer loop
      vertex 1.5 22 20
      vertex 0 23 20
      vertex 1.5 14 20
    endloop
  endfacet
  facet normal -0 0 1
    outer loop
      vertex 0 23 20
      vertex 1.5 22 20
      vertex 13 23 20
    endloop
  endfacet
  facet normal 0 0 1
    outer loop
      vertex 13 23 20
      vertex 11.5 14 20
      vertex 13 9 20
    endloop
  endfacet
  facet normal -0 0 1
    outer loop
      vertex 11 12 20
      vertex 13 9 20
      vertex 11.5 14 20
    endloop
  endfacet
  facet normal 0 0 1
    outer loop
      vertex 13 9 20
      vertex 11 12 20
      vertex 11 9 20
    endloop
  endfacet
  facet normal 0 0 1
    outer loop
      vertex 11 2 20
      vertex 13 5 20
      vertex 11 5 20
    endloop
  endfacet
  facet normal 0 0 1
    outer loop
      vertex 13 5 20
      vertex 11 2 20
      vertex 13 0 20
    endloop
  endfacet
  facet normal -0 0 1
    outer loop
      vertex 6 2 20
      vertex 13 0 20
      vertex 11 2 20
    endloop
  endfacet
  facet normal 0 0 1
    outer loop
      vertex 0 6 20
      vertex 1.5 14 20
      vertex 0 23 20
    endloop
  endfacet
  facet normal 0 0 1
    outer loop
      vertex 6 12 20
      vertex 0 6 20
      vertex 6 2 20
    endloop
  endfacet
  facet normal -0 0 1
    outer loop
      vertex 0 4 20
      vertex 6 2 20
      vertex 0 6 20
    endloop
  endfacet
  facet normal 0 0 1
    outer loop
      vertex 6 2 20
      vertex 0 0 20
      vertex 13 0 20
    endloop
  endfacet
  facet normal 0 0 1
    outer loop
      vertex 0 0 20
      vertex 6 2 20
      vertex 0 4 20
    endloop
  endfacet
  facet normal -0 0 1
    outer loop
      vertex -7 11 20
      vertex -5 8 20
      vertex -5 11 20
    endloop
  endfacet
  facet normal 0 0 1
    outer loop
      vertex -5 8 20
      vertex -7 11 20
      vertex -5 4 20
    endloop
  endfacet
  facet normal 0 0 1
    outer loop
      vertex -7 1 20
      vertex -5 4 20
      vertex -7 11 20
    endloop
  endfacet
  facet normal 0 0 1
    outer loop
      vertex -5 4 20
      vertex -7 1 20
      vertex -5 1 20
    endloop
  endfacet
  facet normal -0 0 1
    outer loop
      vertex -5 8 20
      vertex 0 6 20
      vertex -4.44089e-016 8 20
    endloop
  endfacet
  facet normal 0 0 1
    outer loop
      vertex -5 4 20
      vertex 0 6 20
      vertex -5 8 20
    endloop
  endfacet
  facet normal 0 0 1
    outer loop
      vertex 0 6 20
      vertex -5 4 20
      vertex 0 4 20
    endloop
  endfacet
  facet normal 0 0 0
    outer loop
      vertex 13 23 20
      vertex 13 9 20
      vertex 13 7 20
    endloop
  endfacet
  facet normal 0 -1 0
    outer loop
      vertex -7 1 0
      vertex -5 1 20
      vertex -7 1 20
    endloop
  endfacet
  facet normal 0 -1 -0
    outer loop
      vertex -5 1 20
      vertex -7 1 0
      vertex -5 1 0
    endloop
  endfacet
  facet normal 0 0 -1
    outer loop
      vertex 13 0 0
      vertex 11 2 0
      vertex 13 5 0
    endloop
  endfacet
  facet normal 0 0 -1
    outer loop
      vertex 13 0 0
      vertex 6 2 0
      vertex 11 2 0
    endloop
  endfacet
  facet normal 0 0 -1
    outer loop
      vertex 0 4 0
      vertex 6 2 0
      vertex 0 0 0
    endloop
  endfacet
  facet normal 0 0 -1
    outer loop
      vertex 0 0 0
      vertex 6 2 0
      vertex 13 0 0
    endloop
  endfacet
  facet normal -0 0 -1
    outer loop
      vertex 13 5 0
      vertex 11 2 0
      vertex 11 5 0
    endloop
  endfacet
  facet normal 0 0 -1
    outer loop
      vertex 11 12 0
      vertex 13 9 0
      vertex 11 9 0
    endloop
  endfacet
  facet normal 0 0 -1
    outer loop
      vertex 13 9 0
      vertex 11 12 0
      vertex 13 18 0
    endloop
  endfacet
  facet normal 0 0 -1
    outer loop
      vertex 6 12 0
      vertex 13 18 0
      vertex 11 12 0
    endloop
  endfacet
  facet normal 0 0 -1
    outer loop
      vertex 0 6 0
      vertex 6 2 0
      vertex 0 4 0
    endloop
  endfacet
  facet normal 0 0 -1
    outer loop
      vertex 6 2 0
      vertex 0 6 0
      vertex 6 12 0
    endloop
  endfacet
  facet normal 0 0 -1
    outer loop
      vertex 6 12 0
      vertex 0 18 0
      vertex 13 18 0
    endloop
  endfacet
  facet normal 0 0 -1
    outer loop
      vertex 0 18 0
      vertex 6 12 0
      vertex 0 6 0
    endloop
  endfacet
  facet normal 0 0 -1
    outer loop
      vertex -7 1 0
      vertex -5 4 0
      vertex -5 1 0
    endloop
  endfacet
  facet normal -0 0 -1
    outer loop
      vertex -5 4 0
      vertex -7 1 0
      vertex -5 8 0
    endloop
  endfacet
  facet normal 0 0 -1
    outer loop
      vertex -7 11 0
      vertex -5 8 0
      vertex -7 1 0
    endloop
  endfacet
  facet normal 0 0 -1
    outer loop
      vertex -5 8 0
      vertex -7 11 0
      vertex -5 11 0
    endloop
  endfacet
  facet normal 0 0 -1
    outer loop
      vertex -5 4 0
      vertex 0 6 0
      vertex 0 4 0
    endloop
  endfacet
  facet normal 0 0 -1
    outer loop
      vertex -5 8 0
      vertex 0 6 0
      vertex -5 4 0
    endloop
  endfacet
  facet normal 0 0 -1
    outer loop
      vertex 0 6 0
      vertex -5 8 0
      vertex -4.44089e-016 8 0
    endloop
  endfacet
  facet normal 0 0 0
    outer loop
      vertex 13 9 0
      vertex 13 18 0
      vertex 13 7 0
    endloop
  endfacet
  facet normal -1 0 0
    outer loop
      vertex -7 3.5 5
      vertex -7 4 13.7929
      vertex -7 4 6.20711
    endloop
  endfacet
  facet normal -1 -0 0
    outer loop
      vertex -7 4 13.7929
      vertex -7 3.5 5
      vertex -7 3.5 15
    endloop
  endfacet
  facet normal -1 0 0
    outer loop
      vertex -7 8 6.20711
      vertex -7 8.5 15
      vertex -7 8.5 5
    endloop
  endfacet
  facet normal -1 0 0
    outer loop
      vertex -7 8.5 15
      vertex -7 8 6.20711
      vertex -7 8 13.7929
    endloop
  endfacet
  facet normal -1 0 0
    outer loop
      vertex -7 11 0
      vertex -7 8.5 5
      vertex -7 11 20
    endloop
  endfacet
  facet normal -1 0 0
    outer loop
      vertex -7 11 0
      vertex -7 8 3.79289
      vertex -7 8.5 5
    endloop
  endfacet
  facet normal -1 0 0
    outer loop
      vertex -7 4 6.20711
      vertex -7 8 6.20711
      vertex -7 8 3.79289
    endloop
  endfacet
  facet normal -1 -0 0
    outer loop
      vertex -7 8 6.20711
      vertex -7 4 6.20711
      vertex -7 8 13.7929
    endloop
  endfacet
  facet normal -1 0 0
    outer loop
      vertex -7 4 6.20711
      vertex -7 8 3.79289
      vertex -7 4 3.79289
    endloop
  endfacet
  facet normal -1 0 0
    outer loop
      vertex -7 11 0
      vertex -7 4 3.79289
      vertex -7 8 3.79289
    endloop
  endfacet
  facet normal -1 -0 0
    outer loop
      vertex -7 3.5 5
      vertex -7 1 0
      vertex -7 3.5 15
    endloop
  endfacet
  facet normal -1 -0 0
    outer loop
      vertex -7 4 3.79289
      vertex -7 1 0
      vertex -7 3.5 5
    endloop
  endfacet
  facet normal -1 0 0
    outer loop
      vertex -7 1 0
      vertex -7 4 3.79289
      vertex -7 11 0
    endloop
  endfacet
  facet normal -1 0 0
    outer loop
      vertex -7 8.5 15
      vertex -7 11 20
      vertex -7 8.5 5
    endloop
  endfacet
  facet normal -1 0 0
    outer loop
      vertex -7 8 16.2071
      vertex -7 11 20
      vertex -7 8.5 15
    endloop
  endfacet
  facet normal -1 0 0
    outer loop
      vertex -7 4 13.7929
      vertex -7 8 13.7929
      vertex -7 4 6.20711
    endloop
  endfacet
  facet normal -1 0 0
    outer loop
      vertex -7 8 13.7929
      vertex -7 4 13.7929
      vertex -7 8 16.2071
    endloop
  endfacet
  facet normal -1 0 0
    outer loop
      vertex -7 4 16.2071
      vertex -7 8 16.2071
      vertex -7 4 13.7929
    endloop
  endfacet
  facet normal -1 0 0
    outer loop
      vertex -7 8 16.2071
      vertex -7 4 16.2071
      vertex -7 11 20
    endloop
  endfacet
  facet normal -1 0 0
    outer loop
      vertex -7 4 16.2071
      vertex -7 1 20
      vertex -7 11 20
    endloop
  endfacet
  facet normal -1 0 0
    outer loop
      vertex -7 3.5 15
      vertex -7 1 20
      vertex -7 4 16.2071
    endloop
  endfacet
  facet normal -1 0 0
    outer loop
      vertex -7 1 20
      vertex -7 3.5 15
      vertex -7 1 0
    endloop
  endfacet
  facet normal 1 -0 0
    outer loop
      vertex -5 1 20
      vertex -5 4 0
      vertex -5 4 20
    endloop
  endfacet
  facet normal 1 0 0
    outer loop
      vertex -5 4 0
      vertex -5 1 20
      vertex -5 1 0
    endloop
  endfacet
  facet normal 1 -0 0
    outer loop
      vertex -5 8 13.7929
      vertex -5 8.5 5
      vertex -5 8.5 15
    endloop
  endfacet
  facet normal 1 0 0
    outer loop
      vertex -5 8.5 5
      vertex -5 8 13.7929
      vertex -5 8 6.20711
    endloop
  endfacet
  facet normal 1 0 0
    outer loop
      vertex -5 11 20
      vertex -5 8.5 15
      vertex -5 11 0
    endloop
  endfacet
  facet normal 1 0 0
    outer loop
      vertex -5 8 16.2071
      vertex -5 11 20
      vertex -5 8 20
    endloop
  endfacet
  facet normal 1 0 0
    outer loop
      vertex -5 11 20
      vertex -5 8 16.2071
      vertex -5 8.5 15
    endloop
  endfacet
  facet normal 1 -0 0
    outer loop
      vertex -5 8.5 5
      vertex -5 11 0
      vertex -5 8.5 15
    endloop
  endfacet
  facet normal 1 -0 0
    outer loop
      vertex -5 8 3.79289
      vertex -5 11 0
      vertex -5 8.5 5
    endloop
  endfacet
  facet normal 1 0 0
    outer loop
      vertex -5 11 0
      vertex -5 8 3.79289
      vertex -5 8 0
    endloop
  endfacet
  facet normal 0 0.92388 -0.382683
    outer loop
      vertex -5 3.5 15
      vertex -7 4 16.2071
      vertex -5 4 16.2071
    endloop
  endfacet
  facet normal 0 0.92388 -0.382683
    outer loop
      vertex -7 4 16.2071
      vertex -5 3.5 15
      vertex -7 3.5 15
    endloop
  endfacet
  facet normal 0 -0.92388 0.382683
    outer loop
      vertex -7 8 13.7929
      vertex -5 8.5 15
      vertex -7 8.5 15
    endloop
  endfacet
  facet normal 0 -0.92388 0.382683
    outer loop
      vertex -5 8.5 15
      vertex -7 8 13.7929
      vertex -5 8 13.7929
    endloop
  endfacet
  facet normal 0 0.92388 0.382683
    outer loop
      vertex -5 4 13.7929
      vertex -7 3.5 15
      vertex -5 3.5 15
    endloop
  endfacet
  facet normal 0 0.92388 0.382683
    outer loop
      vertex -7 3.5 15
      vertex -5 4 13.7929
      vertex -7 4 13.7929
    endloop
  endfacet
  facet normal 0 -0.92388 -0.382683
    outer loop
      vertex -7 8.5 15
      vertex -5 8 16.2071
      vertex -7 8 16.2071
    endloop
  endfacet
  facet normal 0 -0.92388 -0.382683
    outer loop
      vertex -5 8 16.2071
      vertex -7 8.5 15
      vertex -5 8.5 15
    endloop
  endfacet
  facet normal -1 4.76837e-007 -1.97512e-007
    outer loop
      vertex -5 4 13.7929
      vertex -5 3.5 15
      vertex -5 4 16.2071
    endloop
  endfacet
  facet normal 0 0.92388 -0.382683
    outer loop
      vertex -5 3.5 5
      vertex -7 4 6.20711
      vertex -5 4 6.20711
    endloop
  endfacet
  facet normal 0 0.92388 -0.382683
    outer loop
      vertex -7 4 6.20711
      vertex -5 3.5 5
      vertex -7 3.5 5
    endloop
  endfacet
  facet normal 0 -0.92388 0.382683
    outer loop
      vertex -7 8 3.79289
      vertex -5 8.5 5
      vertex -7 8.5 5
    endloop
  endfacet
  facet normal 0 -0.92388 0.382683
    outer loop
      vertex -5 8.5 5
      vertex -7 8 3.79289
      vertex -5 8 3.79289
    endloop
  endfacet
  facet normal 0 0.92388 0.382683
    outer loop
      vertex -5 4 3.79289
      vertex -7 3.5 5
      vertex -5 3.5 5
    endloop
  endfacet
  facet normal 0 0.92388 0.382683
    outer loop
      vertex -7 3.5 5
      vertex -5 4 3.79289
      vertex -7 4 3.79289
    endloop
  endfacet
  facet normal 0 -0.92388 -0.382683
    outer loop
      vertex -7 8.5 5
      vertex -5 8 6.20711
      vertex -7 8 6.20711
    endloop
  endfacet
  facet normal 0 -0.92388 -0.382683
    outer loop
      vertex -5 8 6.20711
      vertex -7 8.5 5
      vertex -5 8.5 5
    endloop
  endfacet
  facet normal -1 4.76837e-007 -1.97512e-007
    outer loop
      vertex -5 4 3.79289
      vertex -5 3.5 5
      vertex -5 4 6.20711
    endloop
  endfacet
  facet normal 0 1 0
    outer loop
      vertex -4.44089e-016 8 20
      vertex -5 8 16.2071
      vertex -5 8 20
    endloop
  endfacet
  facet normal 0 1 0
    outer loop
      vertex -5 8 16.2071
      vertex -5 8 13.7929
      vertex -7 8 16.2071
    endloop
  endfacet
  facet normal 0 1 0
    outer loop
      vertex -4.44089e-016 8 20
      vertex -5 8 13.7929
      vertex -5 8 16.2071
    endloop
  endfacet
  facet normal 0 1 0
    outer loop
      vertex -4.44089e-016 8 20
      vertex -5 8 6.20711
      vertex -5 8 13.7929
    endloop
  endfacet
  facet normal 0 1 0
    outer loop
      vertex -5 8 6.20711
      vertex -5 8 3.79289
      vertex -7 8 6.20711
    endloop
  endfacet
  facet normal 0 1 -0
    outer loop
      vertex -4.44089e-016 8 0
      vertex -5 8 6.20711
      vertex -4.44089e-016 8 20
    endloop
  endfacet
  facet normal 0 1 0
    outer loop
      vertex -5 8 6.20711
      vertex -4.44089e-016 8 0
      vertex -5 8 3.79289
    endloop
  endfacet
  facet normal 0 1 0
    outer loop
      vertex -5 8 3.79289
      vertex -4.44089e-016 8 0
      vertex -5 8 0
    endloop
  endfacet
  facet normal 0 1 0
    outer loop
      vertex -7 8 16.2071
      vertex -5 8 13.7929
      vertex -7 8 13.7929
    endloop
  endfacet
  facet normal 0 1 0
    outer loop
      vertex -7 8 6.20711
      vertex -5 8 3.79289
      vertex -7 8 3.79289
    endloop
  endfacet
  facet normal 0 -1 0
    outer loop
      vertex -5 4 0
      vertex 0 4 20
      vertex -5 4 20
    endloop
  endfacet
  facet normal 0 -1 -0
    outer loop
      vertex 0 4 20
      vertex -5 4 0
      vertex 0 4 0
    endloop
  endfacet
  facet normal 0 -1 0
    outer loop
      vertex -7 4 3.79289
      vertex -5 4 6.20711
      vertex -7 4 6.20711
    endloop
  endfacet
  facet normal 0 -1 -0
    outer loop
      vertex -5 4 6.20711
      vertex -7 4 3.79289
      vertex -5 4 3.79289
    endloop
  endfacet
  facet normal 0 -1 0
    outer loop
      vertex -7 4 13.7929
      vertex -5 4 16.2071
      vertex -7 4 16.2071
    endloop
  endfacet
  facet normal 0 -1 -0
    outer loop
      vertex -5 4 16.2071
      vertex -7 4 13.7929
      vertex -5 4 13.7929
    endloop
  endfacet
  facet normal 1 2.22045e-016 0
    outer loop
      vertex 0 6 20
      vertex -4.44089e-016 8 0
      vertex -4.44089e-016 8 20
    endloop
  endfacet
  facet normal 1 2.22045e-016 0
    outer loop
      vertex -4.44089e-016 8 0
      vertex 0 6 20
      vertex 0 6 0
    endloop
  endfacet
  facet normal 0 -0.382683 0.92388
    outer loop
      vertex 4 8.76777 13.2322
      vertex 6 7 12.5
      vertex 6 8.76777 13.2322
    endloop
  endfacet
  facet normal 0 -0.382683 0.92388
    outer loop
      vertex 6 7 12.5
      vertex 4 8.76777 13.2322
      vertex 4 7 12.5
    endloop
  endfacet
  facet normal 1 0 0
    outer loop
      vertex 4 8.76777 16.7678
      vertex 4 8.76777 13.2322
      vertex 4 9.5 15
    endloop
  endfacet
  facet normal 1 0 0
    outer loop
      vertex 4 7 17.5
      vertex 4 8.76777 13.2322
      vertex 4 8.76777 16.7678
    endloop
  endfacet
  facet normal 1 0 0
    outer loop
      vertex 4 7 17.5
      vertex 4 7 12.5
      vertex 4 8.76777 13.2322
    endloop
  endfacet
  facet normal 1 -0 0
    outer loop
      vertex 4 5.23223 16.7678
      vertex 4 7 12.5
      vertex 4 7 17.5
    endloop
  endfacet
  facet normal 1 0 0
    outer loop
      vertex 4 5.23223 16.7678
      vertex 4 5.23223 13.2322
      vertex 4 7 12.5
    endloop
  endfacet
  facet normal 1 0 -0
    outer loop
      vertex 4 5.23223 13.2322
      vertex 4 5.23223 16.7678
      vertex 4 4.5 15
    endloop
  endfacet
  facet normal 0 0.92388 -0.382683
    outer loop
      vertex 6 4.5 15
      vertex 4 5.23223 16.7678
      vertex 6 5.23223 16.7678
    endloop
  endfacet
  facet normal 0 0.92388 -0.382683
    outer loop
      vertex 4 5.23223 16.7678
      vertex 6 4.5 15
      vertex 4 4.5 15
    endloop
  endfacet
  facet normal 0 -0.382683 -0.92388
    outer loop
      vertex 4 7 17.5
      vertex 6 8.76777 16.7678
      vertex 6 7 17.5
    endloop
  endfacet
  facet normal -0 -0.382683 -0.92388
    outer loop
      vertex 6 8.76777 16.7678
      vertex 4 7 17.5
      vertex 4 8.76777 16.7678
    endloop
  endfacet
  facet normal 0 -0.92388 0.382683
    outer loop
      vertex 4 8.76777 13.2322
      vertex 6 9.5 15
      vertex 4 9.5 15
    endloop
  endfacet
  facet normal 0 -0.92388 0.382683
    outer loop
      vertex 6 9.5 15
      vertex 4 8.76777 13.2322
      vertex 6 8.76777 13.2322
    endloop
  endfacet
  facet normal -0 0.382683 0.92388
    outer loop
      vertex 4 7 12.5
      vertex 6 5.23223 13.2322
      vertex 6 7 12.5
    endloop
  endfacet
  facet normal 0 0.382683 0.92388
    outer loop
      vertex 6 5.23223 13.2322
      vertex 4 7 12.5
      vertex 4 5.23223 13.2322
    endloop
  endfacet
  facet normal 0 0.92388 0.382683
    outer loop
      vertex 6 5.23223 13.2322
      vertex 4 4.5 15
      vertex 6 4.5 15
    endloop
  endfacet
  facet normal 0 0.92388 0.382683
    outer loop
      vertex 4 4.5 15
      vertex 6 5.23223 13.2322
      vertex 4 5.23223 13.2322
    endloop
  endfacet
  facet normal 0 -0.92388 -0.382683
    outer loop
      vertex 4 9.5 15
      vertex 6 8.76777 16.7678
      vertex 4 8.76777 16.7678
    endloop
  endfacet
  facet normal 0 -0.92388 -0.382683
    outer loop
      vertex 6 8.76777 16.7678
      vertex 4 9.5 15
      vertex 6 9.5 15
    endloop
  endfacet
  facet normal 1 -0 0
    outer loop
      vertex 6 8.76777 13.2322
      vertex 6 9.5 5
      vertex 6 9.5 15
    endloop
  endfacet
  facet normal 1 0 0
    outer loop
      vertex 6 8.76777 13.2322
      vertex 6 8.76777 6.76777
      vertex 6 9.5 5
    endloop
  endfacet
  facet normal 1 -0 0
    outer loop
      vertex 6 7 12.5
      vertex 6 8.76777 6.76777
      vertex 6 8.76777 13.2322
    endloop
  endfacet
  facet normal 1 0 0
    outer loop
      vertex 6 5.23223 13.2322
      vertex 6 8.76777 6.76777
      vertex 6 7 12.5
    endloop
  endfacet
  facet normal 1 0 0
    outer loop
      vertex 6 8.76777 6.76777
      vertex 6 5.23223 13.2322
      vertex 6 5.23223 3.23223
    endloop
  endfacet
  facet normal 1 0 0
    outer loop
      vertex 6 12 20
      vertex 6 9.5 15
      vertex 6 12 0
    endloop
  endfacet
  facet normal 1 0 0
    outer loop
      vertex 6 12 20
      vertex 6 8.76777 16.7678
      vertex 6 9.5 15
    endloop
  endfacet
  facet normal 1 -0 0
    outer loop
      vertex 6 2 20
      vertex 6 8.76777 16.7678
      vertex 6 12 20
    endloop
  endfacet
  facet normal 1 0 0
    outer loop
      vertex 6 2 0
      vertex 6 5.23223 13.2322
      vertex 6 2 20
    endloop
  endfacet
  facet normal 1 0 0
    outer loop
      vertex 6 8.76777 16.7678
      vertex 6 2 20
      vertex 6 5.23223 13.2322
    endloop
  endfacet
  facet normal 1 -0 0
    outer loop
      vertex 6 9.5 5
      vertex 6 12 0
      vertex 6 9.5 15
    endloop
  endfacet
  facet normal 1 -0 0
    outer loop
      vertex 6 8.76777 3.23223
      vertex 6 12 0
      vertex 6 9.5 5
    endloop
  endfacet
  facet normal 1 -0 0
    outer loop
      vertex 6 7 2.5
      vertex 6 12 0
      vertex 6 8.76777 3.23223
    endloop
  endfacet
  facet normal 1 0 0
    outer loop
      vertex 6 2 0
      vertex 6 7 2.5
      vertex 6 5.23223 3.23223
    endloop
  endfacet
  facet normal 1 0 0
    outer loop
      vertex 6 7 2.5
      vertex 6 2 0
      vertex 6 12 0
    endloop
  endfacet
  facet normal 1 0 0
    outer loop
      vertex 6 5.23223 13.2322
      vertex 6 2 0
      vertex 6 5.23223 3.23223
    endloop
  endfacet
  facet normal -1 6.51209e-007 -2.6974e-007
    outer loop
      vertex 6 5.23223 13.2322
      vertex 6 4.5 15
      vertex 6 5.23223 16.7678
    endloop
  endfacet
  facet normal 0 0.382683 -0.92388
    outer loop
      vertex 4 5.23223 16.7678
      vertex 6 7 17.5
      vertex 6 5.23223 16.7678
    endloop
  endfacet
  facet normal 0 0.382683 -0.92388
    outer loop
      vertex 6 7 17.5
      vertex 4 5.23223 16.7678
      vertex 4 7 17.5
    endloop
  endfacet
  facet normal -1 2.6974e-007 -2.6974e-007
    outer loop
      vertex 6 8.76777 16.7678
      vertex 6 5.23223 13.2322
      vertex 6 5.23223 16.7678
    endloop
  endfacet
  facet normal -1 2.6974e-007 -6.51209e-007
    outer loop
      vertex 6 8.76777 16.7678
      vertex 6 5.23223 16.7678
      vertex 6 7 17.5
    endloop
  endfacet
  facet normal 0 -0.382683 0.92388
    outer loop
      vertex 4 8.76777 3.23223
      vertex 6 7 2.5
      vertex 6 8.76777 3.23223
    endloop
  endfacet
  facet normal 0 -0.382683 0.92388
    outer loop
      vertex 6 7 2.5
      vertex 4 8.76777 3.23223
      vertex 4 7 2.5
    endloop
  endfacet
  facet normal 1 0 0
    outer loop
      vertex 4 8.76777 6.76777
      vertex 4 8.76777 3.23223
      vertex 4 9.5 5
    endloop
  endfacet
  facet normal 1 0 0
    outer loop
      vertex 4 7 7.5
      vertex 4 8.76777 3.23223
      vertex 4 8.76777 6.76777
    endloop
  endfacet
  facet normal 1 0 0
    outer loop
      vertex 4 7 7.5
      vertex 4 7 2.5
      vertex 4 8.76777 3.23223
    endloop
  endfacet
  facet normal 1 -0 0
    outer loop
      vertex 4 5.23223 6.76777
      vertex 4 7 2.5
      vertex 4 7 7.5
    endloop
  endfacet
  facet normal 1 0 0
    outer loop
      vertex 4 5.23223 6.76777
      vertex 4 5.23223 3.23223
      vertex 4 7 2.5
    endloop
  endfacet
  facet normal 1 0 -0
    outer loop
      vertex 4 5.23223 3.23223
      vertex 4 5.23223 6.76777
      vertex 4 4.5 5
    endloop
  endfacet
  facet normal 0 0.92388 -0.382683
    outer loop
      vertex 6 4.5 5
      vertex 4 5.23223 6.76777
      vertex 6 5.23223 6.76777
    endloop
  endfacet
  facet normal 0 0.92388 -0.382683
    outer loop
      vertex 4 5.23223 6.76777
      vertex 6 4.5 5
      vertex 4 4.5 5
    endloop
  endfacet
  facet normal 0 -0.382683 -0.92388
    outer loop
      vertex 4 7 7.5
      vertex 6 8.76777 6.76777
      vertex 6 7 7.5
    endloop
  endfacet
  facet normal -0 -0.382683 -0.92388
    outer loop
      vertex 6 8.76777 6.76777
      vertex 4 7 7.5
      vertex 4 8.76777 6.76777
    endloop
  endfacet
  facet normal 0 -0.92388 0.382683
    outer loop
      vertex 4 8.76777 3.23223
      vertex 6 9.5 5
      vertex 4 9.5 5
    endloop
  endfacet
  facet normal 0 -0.92388 0.382683
    outer loop
      vertex 6 9.5 5
      vertex 4 8.76777 3.23223
      vertex 6 8.76777 3.23223
    endloop
  endfacet
  facet normal -0 0.382683 0.92388
    outer loop
      vertex 4 7 2.5
      vertex 6 5.23223 3.23223
      vertex 6 7 2.5
    endloop
  endfacet
  facet normal 0 0.382683 0.92388
    outer loop
      vertex 6 5.23223 3.23223
      vertex 4 7 2.5
      vertex 4 5.23223 3.23223
    endloop
  endfacet
  facet normal 0 0.92388 0.382683
    outer loop
      vertex 6 5.23223 3.23223
      vertex 4 4.5 5
      vertex 6 4.5 5
    endloop
  endfacet
  facet normal 0 0.92388 0.382683
    outer loop
      vertex 4 4.5 5
      vertex 6 5.23223 3.23223
      vertex 4 5.23223 3.23223
    endloop
  endfacet
  facet normal 0 -0.92388 -0.382683
    outer loop
      vertex 4 9.5 5
      vertex 6 8.76777 6.76777
      vertex 4 8.76777 6.76777
    endloop
  endfacet
  facet normal 0 -0.92388 -0.382683
    outer loop
      vertex 6 8.76777 6.76777
      vertex 4 9.5 5
      vertex 6 9.5 5
    endloop
  endfacet
  facet normal -1 6.51209e-007 -2.6974e-007
    outer loop
      vertex 6 5.23223 3.23223
      vertex 6 4.5 5
      vertex 6 5.23223 6.76777
    endloop
  endfacet
  facet normal 0 0.382683 -0.92388
    outer loop
      vertex 4 5.23223 6.76777
      vertex 6 7 7.5
      vertex 6 5.23223 6.76777
    endloop
  endfacet
  facet normal 0 0.382683 -0.92388
    outer loop
      vertex 6 7 7.5
      vertex 4 5.23223 6.76777
      vertex 4 7 7.5
    endloop
  endfacet
  facet normal -1 2.6974e-007 -2.6974e-007
    outer loop
      vertex 6 8.76777 6.76777
      vertex 6 5.23223 3.23223
      vertex 6 5.23223 6.76777
    endloop
  endfacet
  facet normal -1 2.6974e-007 -6.51209e-007
    outer loop
      vertex 6 8.76777 6.76777
      vertex 6 5.23223 6.76777
      vertex 6 7 7.5
    endloop
  endfacet
  facet normal 0 -1 0
    outer loop
      vertex 11 9 0
      vertex 13 9 20
      vertex 11 9 20
    endloop
  endfacet
  facet normal 0 -1 -0
    outer loop
      vertex 13 9 20
      vertex 11 9 0
      vertex 13 9 0
    endloop
  endfacet
  facet normal 0 1 -0
    outer loop
      vertex 13 5 0
      vertex 11 5 20
      vertex 13 5 20
    endloop
  endfacet
  facet normal 0 1 0
    outer loop
      vertex 11 5 20
      vertex 13 5 0
      vertex 11 5 0
    endloop
  endfacet
  facet normal -1 0 0
    outer loop
      vertex 13 7 0
      vertex 13 9 20
      vertex 13 9 0
    endloop
  endfacet
  facet normal -1 -0 0
    outer loop
      vertex 13 9 20
      vertex 13 7 0
      vertex 13 7 20
    endloop
  endfacet
  facet normal -1 0 0
    outer loop
      vertex 11 2 0
      vertex 11 5 20
      vertex 11 5 0
    endloop
  endfacet
  facet normal -1 -0 0
    outer loop
      vertex 11 5 20
      vertex 11 2 0
      vertex 11 2 20
    endloop
  endfacet
  facet normal -1 0 0
    outer loop
      vertex 11 9 0
      vertex 11 12 20
      vertex 11 12 0
    endloop
  endfacet
  facet normal -1 -0 0
    outer loop
      vertex 11 12 20
      vertex 11 9 0
      vertex 11 9 20
    endloop
  endfacet
  facet normal 0 -1 0
    outer loop
      vertex 6 12 0
      vertex 11 12 20
      vertex 6 12 20
    endloop
  endfacet
  facet normal 0 -1 -0
    outer loop
      vertex 11 12 20
      vertex 6 12 0
      vertex 11 12 0
    endloop
  endfacet
  facet normal 0 1 -0
    outer loop
      vertex 11 2 0
      vertex 6 2 20
      vertex 11 2 20
    endloop
  endfacet
  facet normal 0 1 0
    outer loop
      vertex 6 2 20
      vertex 11 2 0
      vertex 6 2 0
    endloop
  endfacet
  facet normal -1 0 0
    outer loop
      vertex 0 0 0
      vertex 0 4 20
      vertex 0 4 0
    endloop
  endfacet
  facet normal -1 -0 0
    outer loop
      vertex 0 4 20
      vertex 0 0 0
      vertex 0 0 20
    endloop
  endfacet
  facet normal -1 0 0
    outer loop
      vertex 0 6 0
      vertex 0 18 3
      vertex 0 18 0
    endloop
  endfacet
  facet normal -1 0 0
    outer loop
      vertex 0 6 20
      vertex 0 15.5 7
      vertex 0 6 0
    endloop
  endfacet
  facet normal -1 -0 0
    outer loop
      vertex 0 18 3
      vertex 0 6 0
      vertex 0 15.5 7
    endloop
  endfacet
  facet normal -1 0 0
    outer loop
      vertex 0 23 3
      vertex 0 20.5 7
      vertex 0 23 20
    endloop
  endfacet
  facet normal -1 0 0
    outer loop
      vertex 0 18 3
      vertex 0 20.5 7
      vertex 0 23 3
    endloop
  endfacet
  facet normal -1 -0 0
    outer loop
      vertex 0 20.5 7
      vertex 0 18 3
      vertex 0 15.5 7
    endloop
  endfacet
  facet normal -1 0 0
    outer loop
      vertex 0 20.5 17.56
      vertex 0 23 20
      vertex 0 20.5 7
    endloop
  endfacet
  facet normal -1 0 0
    outer loop
      vertex 0 15.5 17.56
      vertex 0 23 20
      vertex 0 20.5 17.56
    endloop
  endfacet
  facet normal -1 0 0
    outer loop
      vertex 0 15.5 17.56
      vertex 0 6 20
      vertex 0 23 20
    endloop
  endfacet
  facet normal -1 0 0
    outer loop
      vertex 0 15.5 7
      vertex 0 6 20
      vertex 0 15.5 17.56
    endloop
  endfacet
  facet normal 1 -0 0
    outer loop
      vertex 13 0 20
      vertex 13 5 0
      vertex 13 5 20
    endloop
  endfacet
  facet normal 1 0 0
    outer loop
      vertex 13 5 0
      vertex 13 0 20
      vertex 13 0 0
    endloop
  endfacet
  facet normal 1 0 0
    outer loop
      vertex 13 20.5 7
      vertex 13 23 20
      vertex 13 20.5 17.56
    endloop
  endfacet
  facet normal 1 0 0
    outer loop
      vertex 13 23 20
      vertex 13 15.5 17.56
      vertex 13 20.5 17.56
    endloop
  endfacet
  facet normal 1 0 0
    outer loop
      vertex 13 15.5 17.56
      vertex 13 7 20
      vertex 13 15.5 7
    endloop
  endfacet
  facet normal 1 -0 0
    outer loop
      vertex 13 7 20
      vertex 13 15.5 17.56
      vertex 13 23 20
    endloop
  endfacet
  facet normal 1 0 0
    outer loop
      vertex 13 23 20
      vertex 13 20.5 7
      vertex 13 23 3
    endloop
  endfacet
  facet normal 1 0 0
    outer loop
      vertex 13 20.5 7
      vertex 13 18 3
      vertex 13 23 3
    endloop
  endfacet
  facet normal 1 -0 0
    outer loop
      vertex 13 15.5 7
      vertex 13 18 3
      vertex 13 20.5 7
    endloop
  endfacet
  facet normal 1 0 0
    outer loop
      vertex 13 7 0
      vertex 13 18 3
      vertex 13 15.5 7
    endloop
  endfacet
  facet normal 1 0 0
    outer loop
      vertex 13 7 0
      vertex 13 15.5 7
      vertex 13 7 20
    endloop
  endfacet
  facet normal 1 0 0
    outer loop
      vertex 13 18 3
      vertex 13 7 0
      vertex 13 18 0
    endloop
  endfacet
  facet normal 0 1 -0
    outer loop
      vertex 13 23 3
      vertex 0 23 20
      vertex 13 23 20
    endloop
  endfacet
  facet normal 0 1 0
    outer loop
      vertex 0 23 20
      vertex 13 23 3
      vertex 0 23 3
    endloop
  endfacet
  facet normal 0 -1 0
    outer loop
      vertex 0 0 0
      vertex 13 0 20
      vertex 0 0 20
    endloop
  endfacet
  facet normal 0 -1 -0
    outer loop
      vertex 13 0 20
      vertex 0 0 0
      vertex 13 0 0
    endloop
  endfacet
  facet normal 0 0 -1
    outer loop
      vertex 0 15.5 17.56
      vertex 1.5 20.5 17.56
      vertex 1.5 15.5 17.56
    endloop
  endfacet
  facet normal -0 0 -1
    outer loop
      vertex 1.5 20.5 17.56
      vertex 0 15.5 17.56
      vertex 0 20.5 17.56
    endloop
  endfacet
  facet normal -0 0 1
    outer loop
      vertex 0 20.5 7
      vertex 1.5 15.5 7
      vertex 1.5 20.5 7
    endloop
  endfacet
  facet normal 0 0 1
    outer loop
      vertex 1.5 15.5 7
      vertex 0 20.5 7
      vertex 0 15.5 7
    endloop
  endfacet
  facet normal 0 1 -0
    outer loop
      vertex 1.5 15.5 7
      vertex 0 15.5 17.56
      vertex 1.5 15.5 17.56
    endloop
  endfacet
  facet normal 0 1 0
    outer loop
      vertex 0 15.5 17.56
      vertex 1.5 15.5 7
      vertex 0 15.5 7
    endloop
  endfacet
  facet normal 0 -1 0
    outer loop
      vertex 0 20.5 7
      vertex 1.5 20.5 17.56
      vertex 0 20.5 17.56
    endloop
  endfacet
  facet normal 0 -1 -0
    outer loop
      vertex 1.5 20.5 17.56
      vertex 0 20.5 7
      vertex 1.5 20.5 7
    endloop
  endfacet
  facet normal -1 0 0
    outer loop
      vertex 11.5 22 4
      vertex 11.5 20.5 7
      vertex 11.5 22 20
    endloop
  endfacet
  facet normal -1 0 0
    outer loop
      vertex 11.5 22 4
      vertex 11.5 15.5 7
      vertex 11.5 20.5 7
    endloop
  endfacet
  facet normal -1 0 0
    outer loop
      vertex 11.5 14 20
      vertex 11.5 15.5 7
      vertex 11.5 14 4
    endloop
  endfacet
  facet normal -1 0 0
    outer loop
      vertex 11.5 14 4
      vertex 11.5 15.5 7
      vertex 11.5 22 4
    endloop
  endfacet
  facet normal -1 0 0
    outer loop
      vertex 11.5 20.5 17.56
      vertex 11.5 22 20
      vertex 11.5 20.5 7
    endloop
  endfacet
  facet normal -1 0 0
    outer loop
      vertex 11.5 15.5 17.56
      vertex 11.5 22 20
      vertex 11.5 20.5 17.56
    endloop
  endfacet
  facet normal -1 0 0
    outer loop
      vertex 11.5 15.5 17.56
      vertex 11.5 14 20
      vertex 11.5 22 20
    endloop
  endfacet
  facet normal -1 0 0
    outer loop
      vertex 11.5 15.5 7
      vertex 11.5 14 20
      vertex 11.5 15.5 17.56
    endloop
  endfacet
  facet normal 0 0 -1
    outer loop
      vertex 11.5 15.5 17.56
      vertex 13 20.5 17.56
      vertex 13 15.5 17.56
    endloop
  endfacet
  facet normal -0 0 -1
    outer loop
      vertex 13 20.5 17.56
      vertex 11.5 15.5 17.56
      vertex 11.5 20.5 17.56
    endloop
  endfacet
  facet normal 0 -1 0
    outer loop
      vertex 11.5 20.5 7
      vertex 13 20.5 17.56
      vertex 11.5 20.5 17.56
    endloop
  endfacet
  facet normal 0 -1 -0
    outer loop
      vertex 13 20.5 17.56
      vertex 11.5 20.5 7
      vertex 13 20.5 7
    endloop
  endfacet
  facet normal -0 0 1
    outer loop
      vertex 11.5 20.5 7
      vertex 13 15.5 7
      vertex 13 20.5 7
    endloop
  endfacet
  facet normal 0 0 1
    outer loop
      vertex 13 15.5 7
      vertex 11.5 20.5 7
      vertex 11.5 15.5 7
    endloop
  endfacet
  facet normal 0 1 -0
    outer loop
      vertex 13 15.5 7
      vertex 11.5 15.5 17.56
      vertex 13 15.5 17.56
    endloop
  endfacet
  facet normal 0 1 0
    outer loop
      vertex 11.5 15.5 17.56
      vertex 13 15.5 7
      vertex 11.5 15.5 7
    endloop
  endfacet
  facet normal 1 0 0
    outer loop
      vertex 1.5 20.5 7
      vertex 1.5 22 20
      vertex 1.5 20.5 17.56
    endloop
  endfacet
  facet normal 1 0 0
    outer loop
      vertex 1.5 22 20
      vertex 1.5 15.5 17.56
      vertex 1.5 20.5 17.56
    endloop
  endfacet
  facet normal 1 0 0
    outer loop
      vertex 1.5 15.5 17.56
      vertex 1.5 14 20
      vertex 1.5 15.5 7
    endloop
  endfacet
  facet normal 1 -0 0
    outer loop
      vertex 1.5 14 20
      vertex 1.5 15.5 17.56
      vertex 1.5 22 20
    endloop
  endfacet
  facet normal 1 0 0
    outer loop
      vertex 1.5 22 20
      vertex 1.5 20.5 7
      vertex 1.5 22 4
    endloop
  endfacet
  facet normal 1 -0 0
    outer loop
      vertex 1.5 15.5 7
      vertex 1.5 22 4
      vertex 1.5 20.5 7
    endloop
  endfacet
  facet normal 1 0 0
    outer loop
      vertex 1.5 15.5 7
      vertex 1.5 14 4
      vertex 1.5 22 4
    endloop
  endfacet
  facet normal 1 0 0
    outer loop
      vertex 1.5 14 4
      vertex 1.5 15.5 7
      vertex 1.5 14 20
    endloop
  endfacet
  facet normal -0 0 1
    outer loop
      vertex 1.5 22 4
      vertex 11.5 14 4
      vertex 11.5 22 4
    endloop
  endfacet
  facet normal 0 0 1
    outer loop
      vertex 11.5 14 4
      vertex 1.5 22 4
      vertex 1.5 14 4
    endloop
  endfacet
  facet normal 0 1 -0
    outer loop
      vertex 11.5 14 4
      vertex 1.5 14 20
      vertex 11.5 14 20
    endloop
  endfacet
  facet normal 0 1 0
    outer loop
      vertex 1.5 14 20
      vertex 11.5 14 4
      vertex 1.5 14 4
    endloop
  endfacet
  facet normal 0 -1 0
    outer loop
      vertex 1.5 22 4
      vertex 11.5 22 20
      vertex 1.5 22 20
    endloop
  endfacet
  facet normal 0 -1 -0
    outer loop
      vertex 11.5 22 20
      vertex 1.5 22 4
      vertex 11.5 22 4
    endloop
  endfacet
  facet normal 0 0 -1
    outer loop
      vertex 0 18 3
      vertex 13 23 3
      vertex 13 18 3
    endloop
  endfacet
  facet normal -0 0 -1
    outer loop
      vertex 13 23 3
      vertex 0 18 3
      vertex 0 23 3
    endloop
  endfacet
  facet normal 0 1 -0
    outer loop
      vertex 13 18 0
      vertex 0 18 3
      vertex 13 18 3
    endloop
  endfacet
  facet normal 0 1 0
    outer loop
      vertex 0 18 3
      vertex 13 18 0
      vertex 0 18 0
    endloop
  endfacet
endsolid OpenSCAD_Model
