solid OpenSCAD_Model
  facet normal 1 -2.6974e-007 2.6974e-007
    outer loop
      vertex 7 48 35
      vertex 7 49.7678 33.2322
      vertex 7 49.7678 36.7678
    endloop
  endfacet
  facet normal 1 -2.6974e-007 2.69739e-007
    outer loop
      vertex 7 49.7678 33.2322
      vertex 7 48 35
      vertex 7 46.2322 33.2322
    endloop
  endfacet
  facet normal 0 -0.923879 0.382684
    outer loop
      vertex 12 49.7678 33.2322
      vertex 12 50.5 35
      vertex 7 50.5 35
    endloop
  endfacet
  facet normal -2.91964e-007 -0.382683 0.92388
    outer loop
      vertex 7 49.7678 33.2322
      vertex 12 48 32.5
      vertex 12 49.7678 33.2322
    endloop
  endfacet
  facet normal 0 -0.382682 0.92388
    outer loop
      vertex 12 48 32.5
      vertex 7 49.7678 33.2322
      vertex 7 48 32.5
    endloop
  endfacet
  facet normal 1 0 0
    outer loop
      vertex 7 49.7678 36.7678
      vertex 7 48 37.5
      vertex 7 48 35
    endloop
  endfacet
  facet normal -7.04865e-007 -0.92388 0.382682
    outer loop
      vertex 12 49.7678 33.2322
      vertex 7 50.5 35
      vertex 7 49.7678 33.2322
    endloop
  endfacet
  facet normal 0 0.92388 0.382682
    outer loop
      vertex 12 46.2322 33.2322
      vertex 7 45.5 35
      vertex 12 45.5 35
    endloop
  endfacet
  facet normal 0 0.92388 0.382682
    outer loop
      vertex 7 45.5 35
      vertex 12 46.2322 33.2322
      vertex 7 46.2322 33.2322
    endloop
  endfacet
  facet normal -7.04865e-007 -0.92388 -0.382682
    outer loop
      vertex 7 50.5 35
      vertex 12 49.7678 36.7678
      vertex 7 49.7678 36.7678
    endloop
  endfacet
  facet normal 1 -6.51211e-007 2.6974e-007
    outer loop
      vertex 7 49.7678 33.2322
      vertex 7 50.5 35
      vertex 7 49.7678 36.7678
    endloop
  endfacet
  facet normal 0 -0.382683 -0.92388
    outer loop
      vertex 7 48 37.5
      vertex 12 49.7678 36.7678
      vertex 12 48 37.5
    endloop
  endfacet
  facet normal -2.91963e-007 -0.382682 -0.92388
    outer loop
      vertex 12 49.7678 36.7678
      vertex 7 48 37.5
      vertex 7 49.7678 36.7678
    endloop
  endfacet
  facet normal -0 0.382682 0.92388
    outer loop
      vertex 7 48 32.5
      vertex 12 46.2322 33.2322
      vertex 12 48 32.5
    endloop
  endfacet
  facet normal 2.91964e-007 0.382683 0.92388
    outer loop
      vertex 7 46.2322 33.2322
      vertex 12 46.2322 33.2322
      vertex 7 48 32.5
    endloop
  endfacet
  facet normal 1 -2.6974e-007 6.51212e-007
    outer loop
      vertex 7 48 32.5
      vertex 7 49.7678 33.2322
      vertex 7 46.2322 33.2322
    endloop
  endfacet
  facet normal -0 -0.923879 -0.382684
    outer loop
      vertex 12 50.5 35
      vertex 12 49.7678 36.7678
      vertex 7 50.5 35
    endloop
  endfacet
  facet normal -1 0 0
    outer loop
      vertex 12 49.7678 33.2322
      vertex 12 49.7678 36.7678
      vertex 12 50.5 35
    endloop
  endfacet
  facet normal -1 0 0
    outer loop
      vertex 12 48 32.5
      vertex 12 49.7678 36.7678
      vertex 12 49.7678 33.2322
    endloop
  endfacet
  facet normal -1 0 0
    outer loop
      vertex 12 48 32.5
      vertex 12 48 37.5
      vertex 12 49.7678 36.7678
    endloop
  endfacet
  facet normal -1 0 0
    outer loop
      vertex 12 46.2322 33.2322
      vertex 12 48 37.5
      vertex 12 48 32.5
    endloop
  endfacet
  facet normal -1 0 0
    outer loop
      vertex 12 46.2322 33.2322
      vertex 12 46.2322 36.7678
      vertex 12 48 37.5
    endloop
  endfacet
  facet normal -1 0 -0
    outer loop
      vertex 12 46.2322 36.7678
      vertex 12 46.2322 33.2322
      vertex 12 45.5 35
    endloop
  endfacet
  facet normal 0 0.92388 -0.382682
    outer loop
      vertex 12 45.5 35
      vertex 7 46.2322 36.7678
      vertex 12 46.2322 36.7678
    endloop
  endfacet
  facet normal 0 0.92388 -0.382682
    outer loop
      vertex 7 46.2322 36.7678
      vertex 12 45.5 35
      vertex 7 45.5 35
    endloop
  endfacet
  facet normal 0 0.382682 -0.92388
    outer loop
      vertex 7 46.2322 36.7678
      vertex 12 48 37.5
      vertex 12 46.2322 36.7678
    endloop
  endfacet
  facet normal 0 0.382682 -0.92388
    outer loop
      vertex 12 48 37.5
      vertex 7 46.2322 36.7678
      vertex 7 48 37.5
    endloop
  endfacet
  facet normal 1 -2.6974e-007 2.6974e-007
    outer loop
      vertex 7 48 5
      vertex 7 49.7678 3.23223
      vertex 7 49.7678 6.76777
    endloop
  endfacet
  facet normal 1 -2.6974e-007 2.69739e-007
    outer loop
      vertex 7 49.7678 3.23223
      vertex 7 48 5
      vertex 7 46.2322 3.23223
    endloop
  endfacet
  facet normal 0 -0.923879 0.382684
    outer loop
      vertex 12 49.7678 3.23223
      vertex 12 50.5 5
      vertex 7 50.5 5
    endloop
  endfacet
  facet normal -2.91964e-007 -0.382683 0.92388
    outer loop
      vertex 7 49.7678 3.23223
      vertex 12 48 2.5
      vertex 12 49.7678 3.23223
    endloop
  endfacet
  facet normal 0 -0.382683 0.92388
    outer loop
      vertex 12 48 2.5
      vertex 7 49.7678 3.23223
      vertex 7 48 2.5
    endloop
  endfacet
  facet normal 1 0 0
    outer loop
      vertex 7 49.7678 6.76777
      vertex 7 48 7.5
      vertex 7 48 5
    endloop
  endfacet
  facet normal -7.04865e-007 -0.92388 0.382682
    outer loop
      vertex 12 49.7678 3.23223
      vertex 7 50.5 5
      vertex 7 49.7678 3.23223
    endloop
  endfacet
  facet normal 0 0.92388 0.382682
    outer loop
      vertex 12 46.2322 3.23223
      vertex 7 45.5 5
      vertex 12 45.5 5
    endloop
  endfacet
  facet normal 0 0.92388 0.382682
    outer loop
      vertex 7 45.5 5
      vertex 12 46.2322 3.23223
      vertex 7 46.2322 3.23223
    endloop
  endfacet
  facet normal -7.04864e-007 -0.92388 -0.382683
    outer loop
      vertex 7 50.5 5
      vertex 12 49.7678 6.76777
      vertex 7 49.7678 6.76777
    endloop
  endfacet
  facet normal 1 -6.51211e-007 2.6974e-007
    outer loop
      vertex 7 49.7678 3.23223
      vertex 7 50.5 5
      vertex 7 49.7678 6.76777
    endloop
  endfacet
  facet normal 0 -0.382684 -0.923879
    outer loop
      vertex 7 48 7.5
      vertex 12 49.7678 6.76777
      vertex 12 48 7.5
    endloop
  endfacet
  facet normal -2.91964e-007 -0.382683 -0.92388
    outer loop
      vertex 12 49.7678 6.76777
      vertex 7 48 7.5
      vertex 7 49.7678 6.76777
    endloop
  endfacet
  facet normal -0 0.382683 0.92388
    outer loop
      vertex 7 48 2.5
      vertex 12 46.2322 3.23223
      vertex 12 48 2.5
    endloop
  endfacet
  facet normal 2.91964e-007 0.382683 0.92388
    outer loop
      vertex 7 46.2322 3.23223
      vertex 12 46.2322 3.23223
      vertex 7 48 2.5
    endloop
  endfacet
  facet normal 1 -2.6974e-007 6.51211e-007
    outer loop
      vertex 7 48 2.5
      vertex 7 49.7678 3.23223
      vertex 7 46.2322 3.23223
    endloop
  endfacet
  facet normal -0 -0.923879 -0.382684
    outer loop
      vertex 12 50.5 5
      vertex 12 49.7678 6.76777
      vertex 7 50.5 5
    endloop
  endfacet
  facet normal -1 0 0
    outer loop
      vertex 12 49.7678 3.23223
      vertex 12 49.7678 6.76777
      vertex 12 50.5 5
    endloop
  endfacet
  facet normal -1 0 0
    outer loop
      vertex 12 48 2.5
      vertex 12 49.7678 6.76777
      vertex 12 49.7678 3.23223
    endloop
  endfacet
  facet normal -1 0 0
    outer loop
      vertex 12 48 2.5
      vertex 12 48 7.5
      vertex 12 49.7678 6.76777
    endloop
  endfacet
  facet normal -1 0 0
    outer loop
      vertex 12 46.2322 3.23223
      vertex 12 48 7.5
      vertex 12 48 2.5
    endloop
  endfacet
  facet normal -1 0 0
    outer loop
      vertex 12 46.2322 3.23223
      vertex 12 46.2322 6.76777
      vertex 12 48 7.5
    endloop
  endfacet
  facet normal -1 0 -0
    outer loop
      vertex 12 46.2322 6.76777
      vertex 12 46.2322 3.23223
      vertex 12 45.5 5
    endloop
  endfacet
  facet normal 0 0.92388 -0.382683
    outer loop
      vertex 12 45.5 5
      vertex 7 46.2322 6.76777
      vertex 12 46.2322 6.76777
    endloop
  endfacet
  facet normal 0 0.92388 -0.382683
    outer loop
      vertex 7 46.2322 6.76777
      vertex 12 45.5 5
      vertex 7 45.5 5
    endloop
  endfacet
  facet normal 0 0.382683 -0.92388
    outer loop
      vertex 7 46.2322 6.76777
      vertex 12 48 7.5
      vertex 12 46.2322 6.76777
    endloop
  endfacet
  facet normal 0 0.382683 -0.92388
    outer loop
      vertex 12 48 7.5
      vertex 7 46.2322 6.76777
      vertex 7 48 7.5
    endloop
  endfacet
  facet normal 1 -0 0
    outer loop
      vertex 2.8 51 40
      vertex 2.8 54 0
      vertex 2.8 54 40
    endloop
  endfacet
  facet normal 1 0 0
    outer loop
      vertex 2.8 54 0
      vertex 2.8 51 40
      vertex 2.8 51 0
    endloop
  endfacet
  facet normal 1 -0 0
    outer loop
      vertex 2.8 42 40
      vertex 2.8 45 0
      vertex 2.8 45 40
    endloop
  endfacet
  facet normal 1 0 0
    outer loop
      vertex 2.8 45 0
      vertex 2.8 42 40
      vertex 2.8 42 0
    endloop
  endfacet
  facet normal 0 0 1
    outer loop
      vertex 2.8 45 40
      vertex 0 45 40
      vertex 2.8 42 40
    endloop
  endfacet
  facet normal -0 0 1
    outer loop
      vertex 7 54 40
      vertex 14 51 40
      vertex 14 60 40
    endloop
  endfacet
  facet normal 0 0 1
    outer loop
      vertex 14 51 40
      vertex 7 54 40
      vertex 14 48 40
    endloop
  endfacet
  facet normal 0 0 1
    outer loop
      vertex 7 42 40
      vertex 14 48 40
      vertex 7 54 40
    endloop
  endfacet
  facet normal 0 0 1
    outer loop
      vertex 14 48 40
      vertex 7 42 40
      vertex 14 45 40
    endloop
  endfacet
  facet normal -0 0 1
    outer loop
      vertex 0 60 40
      vertex 7 54 40
      vertex 14 60 40
    endloop
  endfacet
  facet normal 0 0 1
    outer loop
      vertex 7 54 40
      vertex 0 60 40
      vertex 2.8 54 40
    endloop
  endfacet
  facet normal 0 0 1
    outer loop
      vertex 0 51 40
      vertex 2.8 54 40
      vertex 0 60 40
    endloop
  endfacet
  facet normal 0 0 1
    outer loop
      vertex 2.8 54 40
      vertex 0 51 40
      vertex 2.8 51 40
    endloop
  endfacet
  facet normal 0 0 1
    outer loop
      vertex 14 48 40
      vertex 18.2 51 40
      vertex 14 51 40
    endloop
  endfacet
  facet normal 0 0 1
    outer loop
      vertex 18.2 51 40
      vertex 14 48 40
      vertex 18.2 45 40
    endloop
  endfacet
  facet normal 0 0 1
    outer loop
      vertex 18.2 45 40
      vertex 14 48 40
      vertex 14 45 40
    endloop
  endfacet
  facet normal 0 0 1
    outer loop
      vertex 14 45 40
      vertex 7 42 40
      vertex 14 39.1 40
    endloop
  endfacet
  facet normal 0 0 1
    outer loop
      vertex 0 39.1 40
      vertex 7 42 40
      vertex 2.8 42 40
    endloop
  endfacet
  facet normal 0 0 1
    outer loop
      vertex 7 42 40
      vertex 0 39.1 40
      vertex 14 39.1 40
    endloop
  endfacet
  facet normal 0 0 1
    outer loop
      vertex 0 39.1 40
      vertex 2.8 42 40
      vertex 0 45 40
    endloop
  endfacet
  facet normal 0 0 0
    outer loop
      vertex 14 60 40
      vertex 14 51 40
      vertex 14 48 40
    endloop
  endfacet
  facet normal 0 0 1
    outer loop
      vertex 0.7 30 40
      vertex 0 30 40
      vertex 0.7 9.1 40
    endloop
  endfacet
  facet normal 0 0 1
    outer loop
      vertex 13.3 9.1 40
      vertex 14 30 40
      vertex 13.3 30 40
    endloop
  endfacet
  facet normal 0 0 1
    outer loop
      vertex 14 30 40
      vertex 13.3 9.1 40
      vertex 14 0 40
    endloop
  endfacet
  facet normal -0 0 1
    outer loop
      vertex 0.7 9.1 40
      vertex 14 0 40
      vertex 13.3 9.1 40
    endloop
  endfacet
  facet normal 0 0 1
    outer loop
      vertex 0.7 9.1 40
      vertex 0 0 40
      vertex 14 0 40
    endloop
  endfacet
  facet normal 0 0 1
    outer loop
      vertex 0 0 40
      vertex 0.7 9.1 40
      vertex 0 30 40
    endloop
  endfacet
  facet normal 0 0 -1
    outer loop
      vertex 2.8 51 0
      vertex 0 51 0
      vertex 2.8 54 0
    endloop
  endfacet
  facet normal 0 0 -1
    outer loop
      vertex 14 48 0
      vertex 18.2 45 0
      vertex 14 45 0
    endloop
  endfacet
  facet normal 0 0 -1
    outer loop
      vertex 18.2 45 0
      vertex 14 48 0
      vertex 18.2 51 0
    endloop
  endfacet
  facet normal -0 0 -1
    outer loop
      vertex 18.2 51 0
      vertex 14 48 0
      vertex 14 51 0
    endloop
  endfacet
  facet normal 0 0 -1
    outer loop
      vertex 7 42 0
      vertex 14 45 0
      vertex 14 6 0
    endloop
  endfacet
  facet normal -0 0 -1
    outer loop
      vertex 14 45 0
      vertex 7 42 0
      vertex 14 48 0
    endloop
  endfacet
  facet normal 0 0 -1
    outer loop
      vertex 7 54 0
      vertex 14 48 0
      vertex 7 42 0
    endloop
  endfacet
  facet normal 0 0 -1
    outer loop
      vertex 14 48 0
      vertex 7 54 0
      vertex 14 51 0
    endloop
  endfacet
  facet normal 0 0 -1
    outer loop
      vertex 0 6 0
      vertex 7 42 0
      vertex 14 6 0
    endloop
  endfacet
  facet normal -0 0 -1
    outer loop
      vertex 7 42 0
      vertex 0 6 0
      vertex 2.8 42 0
    endloop
  endfacet
  facet normal 0 0 -1
    outer loop
      vertex 0 45 0
      vertex 2.8 42 0
      vertex 0 6 0
    endloop
  endfacet
  facet normal 0 0 -1
    outer loop
      vertex 2.8 42 0
      vertex 0 45 0
      vertex 2.8 45 0
    endloop
  endfacet
  facet normal 0 0 -1
    outer loop
      vertex 14 51 0
      vertex 7 54 0
      vertex 14 60 0
    endloop
  endfacet
  facet normal 0 0 -1
    outer loop
      vertex 0 60 0
      vertex 7 54 0
      vertex 2.8 54 0
    endloop
  endfacet
  facet normal 0 0 -1
    outer loop
      vertex 7 54 0
      vertex 0 60 0
      vertex 14 60 0
    endloop
  endfacet
  facet normal 0 0 -1
    outer loop
      vertex 0 60 0
      vertex 2.8 54 0
      vertex 0 51 0
    endloop
  endfacet
  facet normal 0 0 0
    outer loop
      vertex 14 48 0
      vertex 14 51 0
      vertex 14 60 0
    endloop
  endfacet
  facet normal 0 -1 0
    outer loop
      vertex 0 51 0
      vertex 2.8 51 40
      vertex 0 51 40
    endloop
  endfacet
  facet normal 0 -1 -0
    outer loop
      vertex 2.8 51 40
      vertex 0 51 0
      vertex 2.8 51 0
    endloop
  endfacet
  facet normal 0 1 -0
    outer loop
      vertex 2.8 45 0
      vertex 0 45 40
      vertex 2.8 45 40
    endloop
  endfacet
  facet normal 0 1 0
    outer loop
      vertex 0 45 40
      vertex 2.8 45 0
      vertex 0 45 0
    endloop
  endfacet
  facet normal -1 0 0
    outer loop
      vertex 7 48 7.5
      vertex 7 46.2322 33.2322
      vertex 7 48 35
    endloop
  endfacet
  facet normal -1 0 0
    outer loop
      vertex 7 46.2322 33.2322
      vertex 7 48 7.5
      vertex 7 46.2322 6.76777
    endloop
  endfacet
  facet normal -1 0 0
    outer loop
      vertex 7 42 0
      vertex 7 46.2322 6.76777
      vertex 7 45.5 5
    endloop
  endfacet
  facet normal -1 -0 0
    outer loop
      vertex 7 46.2322 6.76777
      vertex 7 42 0
      vertex 7 46.2322 33.2322
    endloop
  endfacet
  facet normal -1 0 0
    outer loop
      vertex 7 48 7.5
      vertex 7 54 0
      vertex 7 48 5
    endloop
  endfacet
  facet normal -1 0 0
    outer loop
      vertex 7 54 0
      vertex 7 46.2322 3.23223
      vertex 7 48 5
    endloop
  endfacet
  facet normal -1 0 0
    outer loop
      vertex 7 42 0
      vertex 7 46.2322 3.23223
      vertex 7 54 0
    endloop
  endfacet
  facet normal -1 0 0
    outer loop
      vertex 7 42 40
      vertex 7 46.2322 33.2322
      vertex 7 42 0
    endloop
  endfacet
  facet normal -1 -0 0
    outer loop
      vertex 7 46.2322 3.23223
      vertex 7 42 0
      vertex 7 45.5 5
    endloop
  endfacet
  facet normal -1 0 0
    outer loop
      vertex 7 54 0
      vertex 7 48 7.5
      vertex 7 54 40
    endloop
  endfacet
  facet normal -1 0 0
    outer loop
      vertex 7 48 35
      vertex 7 54 40
      vertex 7 48 7.5
    endloop
  endfacet
  facet normal -1 0 0
    outer loop
      vertex 7 48 37.5
      vertex 7 54 40
      vertex 7 48 35
    endloop
  endfacet
  facet normal -1 0 0
    outer loop
      vertex 7 42 40
      vertex 7 48 37.5
      vertex 7 46.2322 36.7678
    endloop
  endfacet
  facet normal -1 0 0
    outer loop
      vertex 7 48 37.5
      vertex 7 42 40
      vertex 7 54 40
    endloop
  endfacet
  facet normal -1 0 0
    outer loop
      vertex 7 45.5 35
      vertex 7 42 40
      vertex 7 46.2322 36.7678
    endloop
  endfacet
  facet normal -1 0 0
    outer loop
      vertex 7 46.2322 33.2322
      vertex 7 42 40
      vertex 7 45.5 35
    endloop
  endfacet
  facet normal 0 -1 0
    outer loop
      vertex 2.8 54 0
      vertex 7 54 40
      vertex 2.8 54 40
    endloop
  endfacet
  facet normal 0 -1 -0
    outer loop
      vertex 7 54 40
      vertex 2.8 54 0
      vertex 7 54 0
    endloop
  endfacet
  facet normal 0 1 -0
    outer loop
      vertex 7 42 0
      vertex 2.8 42 40
      vertex 7 42 40
    endloop
  endfacet
  facet normal 0 1 0
    outer loop
      vertex 2.8 42 40
      vertex 7 42 0
      vertex 2.8 42 0
    endloop
  endfacet
  facet normal -1 0 0
    outer loop
      vertex 0 45 0
      vertex 0 39.1 2.22
      vertex 0 45 40
    endloop
  endfacet
  facet normal -1 0 0
    outer loop
      vertex 0 45 0
      vertex 0 30 2.22
      vertex 0 39.1 2.22
    endloop
  endfacet
  facet normal -1 0 0
    outer loop
      vertex 0 6 0
      vertex 0 30 2.22
      vertex 0 45 0
    endloop
  endfacet
  facet normal -1 0 0
    outer loop
      vertex 0 6 20
      vertex 0 30 2.22
      vertex 0 6 0
    endloop
  endfacet
  facet normal -1 0 0
    outer loop
      vertex 0 30 2.22
      vertex 0 6 20
      vertex 0 30 40
    endloop
  endfacet
  facet normal -1 0 0
    outer loop
      vertex 0 0 40
      vertex 0 6 20
      vertex 0 0 20
    endloop
  endfacet
  facet normal -1 0 0
    outer loop
      vertex 0 6 20
      vertex 0 0 40
      vertex 0 30 40
    endloop
  endfacet
  facet normal -1 -0 0
    outer loop
      vertex 0 45 40
      vertex 0 39.1 2.22
      vertex 0 39.1 40
    endloop
  endfacet
  facet normal -1 0 0
    outer loop
      vertex 0 51 0
      vertex 0 60 40
      vertex 0 60 0
    endloop
  endfacet
  facet normal -1 -0 0
    outer loop
      vertex 0 60 40
      vertex 0 51 0
      vertex 0 51 40
    endloop
  endfacet
  facet normal 1 0 0
    outer loop
      vertex 14 30 40
      vertex 14 6 20
      vertex 14 30 2.22
    endloop
  endfacet
  facet normal 1 -0 0
    outer loop
      vertex 14 0 40
      vertex 14 6 20
      vertex 14 30 40
    endloop
  endfacet
  facet normal 1 0 0
    outer loop
      vertex 14 6 20
      vertex 14 0 40
      vertex 14 0 20
    endloop
  endfacet
  facet normal 1 0 0
    outer loop
      vertex 14 39.1 2.22
      vertex 14 45 40
      vertex 14 39.1 40
    endloop
  endfacet
  facet normal 1 0 0
    outer loop
      vertex 14 45 40
      vertex 14 39.1 2.22
      vertex 14 45 0
    endloop
  endfacet
  facet normal 1 -0 0
    outer loop
      vertex 14 30 2.22
      vertex 14 45 0
      vertex 14 39.1 2.22
    endloop
  endfacet
  facet normal 1 0 0
    outer loop
      vertex 14 30 2.22
      vertex 14 6 0
      vertex 14 45 0
    endloop
  endfacet
  facet normal 1 0 0
    outer loop
      vertex 14 6 0
      vertex 14 30 2.22
      vertex 14 6 20
    endloop
  endfacet
  facet normal 1 -0 0
    outer loop
      vertex 14 48 40
      vertex 14 60 0
      vertex 14 60 40
    endloop
  endfacet
  facet normal 1 0 0
    outer loop
      vertex 14 60 0
      vertex 14 48 40
      vertex 14 48 0
    endloop
  endfacet
  facet normal 0 1 -0
    outer loop
      vertex 14 60 0
      vertex 0 60 40
      vertex 14 60 40
    endloop
  endfacet
  facet normal 0 1 0
    outer loop
      vertex 0 60 40
      vertex 14 60 0
      vertex 0 60 0
    endloop
  endfacet
  facet normal 0 -1 0
    outer loop
      vertex 0 0 20
      vertex 14 0 40
      vertex 0 0 40
    endloop
  endfacet
  facet normal 0 -1 -0
    outer loop
      vertex 14 0 40
      vertex 0 0 20
      vertex 14 0 20
    endloop
  endfacet
  facet normal 0 -0.92388 0.382682
    outer loop
      vertex 18.2 50.2218 34.3282
      vertex 21 50.5 35
      vertex 18.2 50.5 35
    endloop
  endfacet
  facet normal -1.88578e-007 -0.92388 0.382683
    outer loop
      vertex 21 50.5 35
      vertex 18.2 50.2218 34.3282
      vertex 21 49.8117 33.3383
    endloop
  endfacet
  facet normal 0 -0.382683 0.92388
    outer loop
      vertex 18.2 49.7678 33.2322
      vertex 21 48 32.5
      vertex 21 49.7678 33.2322
    endloop
  endfacet
  facet normal 0 -0.382683 0.92388
    outer loop
      vertex 21 48 32.5
      vertex 18.2 49.7678 33.2322
      vertex 18.2 48 32.5
    endloop
  endfacet
  facet normal 9.18239e-007 -0.923879 0.382685
    outer loop
      vertex 18.2 49.7678 33.2322
      vertex 21 49.8117 33.3383
      vertex 18.2 50.2218 34.3282
    endloop
  endfacet
  facet normal 0 -0.92387 0.382706
    outer loop
      vertex 21 49.8117 33.3383
      vertex 18.2 49.7678 33.2322
      vertex 21 49.7678 33.2322
    endloop
  endfacet
  facet normal 0 0.92388 0.382682
    outer loop
      vertex 21 46.2322 33.2322
      vertex 18.2 45.5 35
      vertex 21 45.5 35
    endloop
  endfacet
  facet normal 0 0.92388 0.382682
    outer loop
      vertex 18.2 45.5 35
      vertex 21 46.2322 33.2322
      vertex 18.2 46.2322 33.2322
    endloop
  endfacet
  facet normal 0 -0.92387 -0.382706
    outer loop
      vertex 18.2 49.7678 36.7678
      vertex 21 49.8117 36.6617
      vertex 21 49.7678 36.7678
    endloop
  endfacet
  facet normal 9.18239e-007 -0.923879 -0.382685
    outer loop
      vertex 21 49.8117 36.6617
      vertex 18.2 49.7678 36.7678
      vertex 18.2 50.2218 35.6718
    endloop
  endfacet
  facet normal 0 -0.382683 -0.92388
    outer loop
      vertex 18.2 48 37.5
      vertex 21 49.7678 36.7678
      vertex 21 48 37.5
    endloop
  endfacet
  facet normal -0 -0.382683 -0.92388
    outer loop
      vertex 21 49.7678 36.7678
      vertex 18.2 48 37.5
      vertex 18.2 49.7678 36.7678
    endloop
  endfacet
  facet normal -0 0.382682 0.92388
    outer loop
      vertex 18.2 48 32.5
      vertex 21 46.2322 33.2322
      vertex 21 48 32.5
    endloop
  endfacet
  facet normal 0 0.382682 0.92388
    outer loop
      vertex 21 46.2322 33.2322
      vertex 18.2 48 32.5
      vertex 18.2 46.2322 33.2322
    endloop
  endfacet
  facet normal -0 -0.92388 -0.382682
    outer loop
      vertex 21 50.5 35
      vertex 18.2 50.2218 35.6718
      vertex 18.2 50.5 35
    endloop
  endfacet
  facet normal -1.88578e-007 -0.92388 -0.382683
    outer loop
      vertex 18.2 50.2218 35.6718
      vertex 21 50.5 35
      vertex 21 49.8117 36.6617
    endloop
  endfacet
  facet normal 0 0.92388 -0.382682
    outer loop
      vertex 21 45.5 35
      vertex 18.2 46.2322 36.7678
      vertex 21 46.2322 36.7678
    endloop
  endfacet
  facet normal 0 0.92388 -0.382682
    outer loop
      vertex 18.2 46.2322 36.7678
      vertex 21 45.5 35
      vertex 18.2 45.5 35
    endloop
  endfacet
  facet normal 0 0.382682 -0.92388
    outer loop
      vertex 18.2 46.2322 36.7678
      vertex 21 48 37.5
      vertex 21 46.2322 36.7678
    endloop
  endfacet
  facet normal 0 0.382682 -0.92388
    outer loop
      vertex 21 48 37.5
      vertex 18.2 46.2322 36.7678
      vertex 18.2 48 37.5
    endloop
  endfacet
  facet normal 0 -0.92388 0.382682
    outer loop
      vertex 18.2 50.2218 4.32825
      vertex 21 50.5 5
      vertex 18.2 50.5 5
    endloop
  endfacet
  facet normal -1.87192e-008 -0.92388 0.382682
    outer loop
      vertex 21 50.5 5
      vertex 18.2 50.2218 4.32825
      vertex 21 49.8117 3.3383
    endloop
  endfacet
  facet normal 0 -0.382683 0.92388
    outer loop
      vertex 18.2 49.7678 3.23223
      vertex 21 48 2.5
      vertex 21 49.7678 3.23223
    endloop
  endfacet
  facet normal 0 -0.382683 0.92388
    outer loop
      vertex 21 48 2.5
      vertex 18.2 49.7678 3.23223
      vertex 18.2 48 2.5
    endloop
  endfacet
  facet normal 1.14634e-006 -0.923879 0.382685
    outer loop
      vertex 18.2 49.7678 3.23223
      vertex 21 49.8117 3.3383
      vertex 18.2 50.2218 4.32825
    endloop
  endfacet
  facet normal 0 -0.923868 0.382711
    outer loop
      vertex 21 49.8117 3.3383
      vertex 18.2 49.7678 3.23223
      vertex 21 49.7678 3.23223
    endloop
  endfacet
  facet normal 0 0.92388 0.382682
    outer loop
      vertex 21 46.2322 3.23223
      vertex 18.2 45.5 5
      vertex 21 45.5 5
    endloop
  endfacet
  facet normal 0 0.92388 0.382682
    outer loop
      vertex 18.2 45.5 5
      vertex 21 46.2322 3.23223
      vertex 18.2 46.2322 3.23223
    endloop
  endfacet
  facet normal 0 -0.923868 -0.38271
    outer loop
      vertex 18.2 49.7678 6.76777
      vertex 21 49.8117 6.6617
      vertex 21 49.7678 6.76777
    endloop
  endfacet
  facet normal 1.10744e-006 -0.923879 -0.382685
    outer loop
      vertex 21 49.8117 6.6617
      vertex 18.2 49.7678 6.76777
      vertex 18.2 50.2218 5.67175
    endloop
  endfacet
  facet normal 0 -0.382684 -0.923879
    outer loop
      vertex 18.2 48 7.5
      vertex 21 49.7678 6.76777
      vertex 21 48 7.5
    endloop
  endfacet
  facet normal -0 -0.382684 -0.923879
    outer loop
      vertex 21 49.7678 6.76777
      vertex 18.2 48 7.5
      vertex 18.2 49.7678 6.76777
    endloop
  endfacet
  facet normal -0 0.382683 0.92388
    outer loop
      vertex 18.2 48 2.5
      vertex 21 46.2322 3.23223
      vertex 21 48 2.5
    endloop
  endfacet
  facet normal 0 0.382683 0.92388
    outer loop
      vertex 21 46.2322 3.23223
      vertex 18.2 48 2.5
      vertex 18.2 46.2322 3.23223
    endloop
  endfacet
  facet normal -0 -0.92388 -0.382683
    outer loop
      vertex 21 50.5 5
      vertex 18.2 50.2218 5.67175
      vertex 18.2 50.5 5
    endloop
  endfacet
  facet normal -1.94125e-008 -0.92388 -0.382683
    outer loop
      vertex 18.2 50.2218 5.67175
      vertex 21 50.5 5
      vertex 21 49.8117 6.6617
    endloop
  endfacet
  facet normal 0 0.92388 -0.382683
    outer loop
      vertex 21 45.5 5
      vertex 18.2 46.2322 6.76777
      vertex 21 46.2322 6.76777
    endloop
  endfacet
  facet normal 0 0.92388 -0.382683
    outer loop
      vertex 18.2 46.2322 6.76777
      vertex 21 45.5 5
      vertex 18.2 45.5 5
    endloop
  endfacet
  facet normal 0 0.382683 -0.92388
    outer loop
      vertex 18.2 46.2322 6.76777
      vertex 21 48 7.5
      vertex 21 46.2322 6.76777
    endloop
  endfacet
  facet normal 0 0.382683 -0.92388
    outer loop
      vertex 21 48 7.5
      vertex 18.2 46.2322 6.76777
      vertex 18.2 48 7.5
    endloop
  endfacet
  facet normal 1 0 0
    outer loop
      vertex 21 54 40
      vertex 21 49.7678 33.2322
      vertex 21 54 0
    endloop
  endfacet
  facet normal 1 0 0
    outer loop
      vertex 21 54 0
      vertex 21 49.8117 6.6617
      vertex 21 50.5 5
    endloop
  endfacet
  facet normal 1 -0 0
    outer loop
      vertex 21 49.7678 6.76777
      vertex 21 54 0
      vertex 21 49.7678 33.2322
    endloop
  endfacet
  facet normal 1 0 0
    outer loop
      vertex 21 54 0
      vertex 21 49.7678 6.76777
      vertex 21 49.8117 6.6617
    endloop
  endfacet
  facet normal 1 -0 0
    outer loop
      vertex 21 48 32.5
      vertex 21 49.7678 6.76777
      vertex 21 49.7678 33.2322
    endloop
  endfacet
  facet normal 1 0 0
    outer loop
      vertex 21 48 32.5
      vertex 21 48 7.5
      vertex 21 49.7678 6.76777
    endloop
  endfacet
  facet normal 1 0 0
    outer loop
      vertex 21 46.2322 33.2322
      vertex 21 48 7.5
      vertex 21 48 32.5
    endloop
  endfacet
  facet normal 1 0 0
    outer loop
      vertex 21 46.2322 33.2322
      vertex 21 46.2322 6.76777
      vertex 21 48 7.5
    endloop
  endfacet
  facet normal 1 0 0
    outer loop
      vertex 21 42 40
      vertex 21 46.2322 33.2322
      vertex 21 45.5 35
    endloop
  endfacet
  facet normal 1 0 0
    outer loop
      vertex 21 46.2322 33.2322
      vertex 21 42 40
      vertex 21 46.2322 6.76777
    endloop
  endfacet
  facet normal 1 0 0
    outer loop
      vertex 21 49.8117 33.3383
      vertex 21 54 40
      vertex 21 50.5 35
    endloop
  endfacet
  facet normal 1 0 0
    outer loop
      vertex 21 54 40
      vertex 21 49.8117 36.6617
      vertex 21 50.5 35
    endloop
  endfacet
  facet normal 1 0 0
    outer loop
      vertex 21 54 40
      vertex 21 49.7678 36.7678
      vertex 21 49.8117 36.6617
    endloop
  endfacet
  facet normal 1 0 0
    outer loop
      vertex 21 54 40
      vertex 21 48 37.5
      vertex 21 49.7678 36.7678
    endloop
  endfacet
  facet normal 1 -0 0
    outer loop
      vertex 21 42 40
      vertex 21 48 37.5
      vertex 21 54 40
    endloop
  endfacet
  facet normal 1 0 0
    outer loop
      vertex 21 42 0
      vertex 21 46.2322 6.76777
      vertex 21 42 40
    endloop
  endfacet
  facet normal 1 0 0
    outer loop
      vertex 21 46.2322 36.7678
      vertex 21 42 40
      vertex 21 45.5 35
    endloop
  endfacet
  facet normal 1 0 0
    outer loop
      vertex 21 48 37.5
      vertex 21 42 40
      vertex 21 46.2322 36.7678
    endloop
  endfacet
  facet normal 1 0 0
    outer loop
      vertex 21 49.7678 33.2322
      vertex 21 54 40
      vertex 21 49.8117 33.3383
    endloop
  endfacet
  facet normal 1 -0 0
    outer loop
      vertex 21 49.8117 3.3383
      vertex 21 54 0
      vertex 21 50.5 5
    endloop
  endfacet
  facet normal 1 -0 0
    outer loop
      vertex 21 49.7678 3.23223
      vertex 21 54 0
      vertex 21 49.8117 3.3383
    endloop
  endfacet
  facet normal 1 -0 0
    outer loop
      vertex 21 48 2.5
      vertex 21 54 0
      vertex 21 49.7678 3.23223
    endloop
  endfacet
  facet normal 1 0 0
    outer loop
      vertex 21 42 0
      vertex 21 48 2.5
      vertex 21 46.2322 3.23223
    endloop
  endfacet
  facet normal 1 0 0
    outer loop
      vertex 21 48 2.5
      vertex 21 42 0
      vertex 21 54 0
    endloop
  endfacet
  facet normal 1 0 0
    outer loop
      vertex 21 45.5 5
      vertex 21 42 0
      vertex 21 46.2322 3.23223
    endloop
  endfacet
  facet normal 1 0 0
    outer loop
      vertex 21 46.2322 6.76777
      vertex 21 42 0
      vertex 21 45.5 5
    endloop
  endfacet
  facet normal -0 0 1
    outer loop
      vertex 18.2 54 40
      vertex 21 42 40
      vertex 21 54 40
    endloop
  endfacet
  facet normal 0 0 1
    outer loop
      vertex 21 42 40
      vertex 18.2 54 40
      vertex 18.2 42 40
    endloop
  endfacet
  facet normal -1 0 0
    outer loop
      vertex 18.2 54 0
      vertex 18.2 49.7678 6.76777
      vertex 18.2 54 40
    endloop
  endfacet
  facet normal -1 0 0
    outer loop
      vertex 18.2 54 40
      vertex 18.2 50.2218 34.3282
      vertex 18.2 50.5 35
    endloop
  endfacet
  facet normal -1 0 0
    outer loop
      vertex 18.2 49.7678 33.2322
      vertex 18.2 54 40
      vertex 18.2 49.7678 6.76777
    endloop
  endfacet
  facet normal -1 0 0
    outer loop
      vertex 18.2 54 40
      vertex 18.2 49.7678 33.2322
      vertex 18.2 50.2218 34.3282
    endloop
  endfacet
  facet normal -1 0 0
    outer loop
      vertex 18.2 48 7.5
      vertex 18.2 49.7678 33.2322
      vertex 18.2 49.7678 6.76777
    endloop
  endfacet
  facet normal -1 0 0
    outer loop
      vertex 18.2 48 7.5
      vertex 18.2 48 32.5
      vertex 18.2 49.7678 33.2322
    endloop
  endfacet
  facet normal -1 0 0
    outer loop
      vertex 18.2 46.2322 6.76777
      vertex 18.2 48 32.5
      vertex 18.2 48 7.5
    endloop
  endfacet
  facet normal -1 0 0
    outer loop
      vertex 18.2 46.2322 6.76777
      vertex 18.2 46.2322 33.2322
      vertex 18.2 48 32.5
    endloop
  endfacet
  facet normal -1 0 0
    outer loop
      vertex 18.2 42 0
      vertex 18.2 46.2322 6.76777
      vertex 18.2 45.5 5
    endloop
  endfacet
  facet normal -1 -0 0
    outer loop
      vertex 18.2 46.2322 6.76777
      vertex 18.2 42 0
      vertex 18.2 46.2322 33.2322
    endloop
  endfacet
  facet normal -1 0 0
    outer loop
      vertex 18.2 50.2218 5.67175
      vertex 18.2 54 0
      vertex 18.2 50.5 5
    endloop
  endfacet
  facet normal -1 0 0
    outer loop
      vertex 18.2 54 0
      vertex 18.2 50.2218 4.32825
      vertex 18.2 50.5 5
    endloop
  endfacet
  facet normal -1 0 0
    outer loop
      vertex 18.2 54 0
      vertex 18.2 49.7678 3.23223
      vertex 18.2 50.2218 4.32825
    endloop
  endfacet
  facet normal -1 0 0
    outer loop
      vertex 18.2 54 0
      vertex 18.2 48 2.5
      vertex 18.2 49.7678 3.23223
    endloop
  endfacet
  facet normal -1 0 0
    outer loop
      vertex 18.2 42 0
      vertex 18.2 48 2.5
      vertex 18.2 54 0
    endloop
  endfacet
  facet normal -1 0 0
    outer loop
      vertex 18.2 42 40
      vertex 18.2 46.2322 33.2322
      vertex 18.2 42 0
    endloop
  endfacet
  facet normal -1 -0 0
    outer loop
      vertex 18.2 46.2322 3.23223
      vertex 18.2 42 0
      vertex 18.2 45.5 5
    endloop
  endfacet
  facet normal -1 -0 0
    outer loop
      vertex 18.2 48 2.5
      vertex 18.2 42 0
      vertex 18.2 46.2322 3.23223
    endloop
  endfacet
  facet normal -1 0 0
    outer loop
      vertex 18.2 49.7678 6.76777
      vertex 18.2 54 0
      vertex 18.2 50.2218 5.67175
    endloop
  endfacet
  facet normal -1 0 0
    outer loop
      vertex 18.2 50.2218 35.6718
      vertex 18.2 54 40
      vertex 18.2 50.5 35
    endloop
  endfacet
  facet normal -1 0 0
    outer loop
      vertex 18.2 49.7678 36.7678
      vertex 18.2 54 40
      vertex 18.2 50.2218 35.6718
    endloop
  endfacet
  facet normal -1 0 0
    outer loop
      vertex 18.2 48 37.5
      vertex 18.2 54 40
      vertex 18.2 49.7678 36.7678
    endloop
  endfacet
  facet normal -1 0 0
    outer loop
      vertex 18.2 42 40
      vertex 18.2 48 37.5
      vertex 18.2 46.2322 36.7678
    endloop
  endfacet
  facet normal -1 0 0
    outer loop
      vertex 18.2 48 37.5
      vertex 18.2 42 40
      vertex 18.2 54 40
    endloop
  endfacet
  facet normal -1 0 0
    outer loop
      vertex 18.2 45.5 35
      vertex 18.2 42 40
      vertex 18.2 46.2322 36.7678
    endloop
  endfacet
  facet normal -1 0 0
    outer loop
      vertex 18.2 46.2322 33.2322
      vertex 18.2 42 40
      vertex 18.2 45.5 35
    endloop
  endfacet
  facet normal 0 0 -1
    outer loop
      vertex 18.2 42 0
      vertex 21 54 0
      vertex 21 42 0
    endloop
  endfacet
  facet normal -0 0 -1
    outer loop
      vertex 21 54 0
      vertex 18.2 42 0
      vertex 18.2 54 0
    endloop
  endfacet
  facet normal 0 1 -0
    outer loop
      vertex 21 54 0
      vertex 18.2 54 40
      vertex 21 54 40
    endloop
  endfacet
  facet normal 0 1 0
    outer loop
      vertex 18.2 54 40
      vertex 21 54 0
      vertex 18.2 54 0
    endloop
  endfacet
  facet normal 0 -1 0
    outer loop
      vertex 18.2 42 0
      vertex 21 42 40
      vertex 18.2 42 40
    endloop
  endfacet
  facet normal 0 -1 -0
    outer loop
      vertex 21 42 40
      vertex 18.2 42 0
      vertex 21 42 0
    endloop
  endfacet
  facet normal 0 1 -0
    outer loop
      vertex 18.2 51 0
      vertex 14 51 40
      vertex 18.2 51 40
    endloop
  endfacet
  facet normal 0 1 0
    outer loop
      vertex 14 51 40
      vertex 18.2 51 0
      vertex 14 51 0
    endloop
  endfacet
  facet normal 0 -1 0
    outer loop
      vertex 14 45 0
      vertex 18.2 45 40
      vertex 14 45 40
    endloop
  endfacet
  facet normal 0 -1 -0
    outer loop
      vertex 18.2 45 40
      vertex 14 45 0
      vertex 18.2 45 0
    endloop
  endfacet
  facet normal -1 0 0
    outer loop
      vertex 14 48 0
      vertex 14 51 40
      vertex 14 51 0
    endloop
  endfacet
  facet normal -1 -0 0
    outer loop
      vertex 14 51 40
      vertex 14 48 0
      vertex 14 48 40
    endloop
  endfacet
  facet normal 1 -3.17891e-007 0
    outer loop
      vertex 18.2 45 40
      vertex 18.2 51 0
      vertex 18.2 51 40
    endloop
  endfacet
  facet normal 1 -3.17891e-007 0
    outer loop
      vertex 18.2 51 0
      vertex 18.2 45 40
      vertex 18.2 45 0
    endloop
  endfacet
  facet normal 0 -1 0
    outer loop
      vertex 0.7 39.1 1.44
      vertex 13.3 39.1 2.22
      vertex 0.7 39.1 2.22
    endloop
  endfacet
  facet normal 0 -1 -0
    outer loop
      vertex 13.3 39.1 2.22
      vertex 0.7 39.1 1.44
      vertex 13.3 39.1 1.44
    endloop
  endfacet
  facet normal 0 -1 0
    outer loop
      vertex 0.7 39.1 2.22
      vertex 0 39.1 40
      vertex 0 39.1 2.22
    endloop
  endfacet
  facet normal 0 -1 0
    outer loop
      vertex 0 39.1 40
      vertex 0.7 39.1 2.22
      vertex 14 39.1 40
    endloop
  endfacet
  facet normal 0 -1 0
    outer loop
      vertex 13.3 39.1 2.22
      vertex 14 39.1 40
      vertex 0.7 39.1 2.22
    endloop
  endfacet
  facet normal 0 -1 -0
    outer loop
      vertex 14 39.1 40
      vertex 13.3 39.1 2.22
      vertex 14 39.1 2.22
    endloop
  endfacet
  facet normal 0 1 -0
    outer loop
      vertex 0.7 30 2.22
      vertex 0 30 40
      vertex 0.7 30 40
    endloop
  endfacet
  facet normal 0 1 0
    outer loop
      vertex 0 30 40
      vertex 0.7 30 2.22
      vertex 0 30 2.22
    endloop
  endfacet
  facet normal 0 1 -0
    outer loop
      vertex 14 30 2.22
      vertex 13.3 30 40
      vertex 14 30 40
    endloop
  endfacet
  facet normal 0 1 0
    outer loop
      vertex 13.3 30 40
      vertex 14 30 2.22
      vertex 13.3 30 2.22
    endloop
  endfacet
  facet normal -0 0 1
    outer loop
      vertex 0 39.1 2.22
      vertex 0.7 30 2.22
      vertex 0.7 39.1 2.22
    endloop
  endfacet
  facet normal 0 0 1
    outer loop
      vertex 0.7 30 2.22
      vertex 0 39.1 2.22
      vertex 0 30 2.22
    endloop
  endfacet
  facet normal -0 0 1
    outer loop
      vertex 13.3 39.1 2.22
      vertex 14 30 2.22
      vertex 14 39.1 2.22
    endloop
  endfacet
  facet normal 0 0 1
    outer loop
      vertex 14 30 2.22
      vertex 13.3 39.1 2.22
      vertex 13.3 30 2.22
    endloop
  endfacet
  facet normal 1 0 0
    outer loop
      vertex 0.7 30 40
      vertex 0.7 9.1 40
      vertex 0.7 30 2.22
    endloop
  endfacet
  facet normal 1 -0 0
    outer loop
      vertex 0.7 30 2.22
      vertex 0.7 39.1 1.44
      vertex 0.7 39.1 2.22
    endloop
  endfacet
  facet normal 1 0 0
    outer loop
      vertex 0.7 30 2.22
      vertex 0.7 9.1 1.44
      vertex 0.7 39.1 1.44
    endloop
  endfacet
  facet normal 1 0 0
    outer loop
      vertex 0.7 9.1 1.44
      vertex 0.7 30 2.22
      vertex 0.7 9.1 40
    endloop
  endfacet
  facet normal -1 0 0
    outer loop
      vertex 13.3 39.1 1.44
      vertex 13.3 30 2.22
      vertex 13.3 39.1 2.22
    endloop
  endfacet
  facet normal -1 0 0
    outer loop
      vertex 13.3 9.1 1.44
      vertex 13.3 30 2.22
      vertex 13.3 39.1 1.44
    endloop
  endfacet
  facet normal -1 0 0
    outer loop
      vertex 13.3 9.1 40
      vertex 13.3 30 2.22
      vertex 13.3 9.1 1.44
    endloop
  endfacet
  facet normal -1 0 0
    outer loop
      vertex 13.3 30 2.22
      vertex 13.3 9.1 40
      vertex 13.3 30 40
    endloop
  endfacet
  facet normal -0 0 1
    outer loop
      vertex 0.7 39.1 1.44
      vertex 13.3 9.1 1.44
      vertex 13.3 39.1 1.44
    endloop
  endfacet
  facet normal 0 0 1
    outer loop
      vertex 13.3 9.1 1.44
      vertex 0.7 39.1 1.44
      vertex 0.7 9.1 1.44
    endloop
  endfacet
  facet normal 0 1 -0
    outer loop
      vertex 13.3 9.1 1.44
      vertex 0.7 9.1 40
      vertex 13.3 9.1 40
    endloop
  endfacet
  facet normal 0 1 0
    outer loop
      vertex 0.7 9.1 40
      vertex 13.3 9.1 1.44
      vertex 0.7 9.1 1.44
    endloop
  endfacet
  facet normal 0 0 -1
    outer loop
      vertex 0 0 20
      vertex 14 6 20
      vertex 14 0 20
    endloop
  endfacet
  facet normal -0 0 -1
    outer loop
      vertex 14 6 20
      vertex 0 0 20
      vertex 0 6 20
    endloop
  endfacet
  facet normal 0 -1 0
    outer loop
      vertex 0 6 0
      vertex 14 6 20
      vertex 0 6 20
    endloop
  endfacet
  facet normal 0 -1 -0
    outer loop
      vertex 14 6 20
      vertex 0 6 0
      vertex 14 6 0
    endloop
  endfacet
endsolid OpenSCAD_Model
